<?xml version="1.0" encoding="UTF-8" standalone="no"?>
<!-- Uploaded to: SVG Repo, www.svgrepo.com, Generator: SVG Repo Mixer Tools -->

<svg
   fill="#000000"
   width="128"
   height="128"
   viewBox="0 0 128 128"
   id="Layer_1"
   version="1.1"
   xml:space="preserve"
   sodipodi:docname="test.svg"
   inkscape:export-filename="../Downloads/test.svg"
   inkscape:export-xdpi="2.4000001"
   inkscape:export-ydpi="2.4000001"
   inkscape:version="1.4.2 (ebf0e940d0, 2025-05-08)"
   xmlns:inkscape="http://www.inkscape.org/namespaces/inkscape"
   xmlns:sodipodi="http://sodipodi.sourceforge.net/DTD/sodipodi-0.dtd"
   xmlns="http://www.w3.org/2000/svg"
   xmlns:svg="http://www.w3.org/2000/svg"><defs
   id="defs2" /><sodipodi:namedview
   id="namedview2"
   pagecolor="#505050"
   bordercolor="#eeeeee"
   borderopacity="1"
   inkscape:showpageshadow="0"
   inkscape:pageopacity="0"
   inkscape:pagecheckerboard="0"
   inkscape:deskcolor="#d1d1d1"
   inkscape:zoom="4.09"
   inkscape:cx="88.386308"
   inkscape:cy="61.858191"
   inkscape:window-width="1920"
   inkscape:window-height="1027"
   inkscape:window-x="0"
   inkscape:window-y="0"
   inkscape:window-maximized="1"
   inkscape:current-layer="Layer_1"
   showguides="true"><sodipodi:guide
     position="64,80.07824"
     orientation="-1,0"
     id="guide3"
     inkscape:locked="false"
     inkscape:label=""
     inkscape:color="rgb(0,134,229)" /><sodipodi:guide
     position="121.42325,64"
     orientation="0,1"
     id="guide4"
     inkscape:locked="false"
     inkscape:label=""
     inkscape:color="rgb(0,134,229)" /></sodipodi:namedview>



<path
   d="m 93.998,45.312 c 0,-3.676 -1.659,-7.121 -4.486,-9.414 0.123,-0.587 0.184,-1.151 0.184,-1.706 0,-4.579 -3.386,-8.382 -7.785,-9.037 0.101,-0.526 0.149,-1.042 0.149,-1.556 0,-4.875 -3.842,-8.858 -8.655,-9.111 -0.079,-0.013 -0.159,-0.024 -0.242,-0.024 -0.04,0 -0.079,0.005 -0.12,0.006 -0.04,-0.001 -0.079,-0.006 -0.12,-0.006 -0.458,0 -0.919,0.041 -1.406,0.126 -0.846,-4.485 -4.753,-7.825 -9.437,-7.825 -5.311,0 -9.632,4.321 -9.632,9.633 v 65.918 c 0,6.723 5.469,12.191 12.191,12.191 4.46,0 8.508,-2.413 10.646,-6.246 0.479,0.104 0.939,0.168 1.401,0.198 2.903,0.185 5.73,-0.766 7.926,-2.693 2.196,-1.927 3.51,-4.594 3.7,-7.51 0.079,-1.215 -0.057,-2.434 -0.403,-3.638 3.796,-2.691 6.027,-6.952 6.027,-11.621 0,-3.385 -1.219,-6.635 -3.445,-9.224 2.24,-2.268 3.507,-5.302 3.507,-8.461 z m -3.06,17.687 c 0,3.484 -1.582,6.68 -4.295,8.819 -2.008,-3.196 -5.57,-5.237 -9.427,-5.237 -0.828,0 -1.5,0.672 -1.5,1.5 0,0.828 0.672,1.5 1.5,1.5 3.341,0 6.384,2.093 7.582,5.208 0.41,1.088 0.592,2.189 0.521,3.274 -0.138,2.116 -1.091,4.051 -2.685,5.449 -1.594,1.399 -3.641,2.094 -5.752,1.954 -0.594,-0.039 -1.208,-0.167 -1.933,-0.402 -0.74,-0.242 -1.541,0.124 -1.846,0.84 -1.445,3.404 -4.768,5.604 -8.465,5.604 -5.068,0 -9.191,-4.123 -9.191,-9.191 V 16.399 c 0,-3.657 2.975,-6.633 6.632,-6.633 3.398,0 6.194,2.562 6.558,5.908 -2.751,1.576 -4.612,4.535 -4.612,7.926 0,0.829 0.672,1.5 1.5,1.5 0.828,0 1.5,-0.671 1.5,-1.5 0,-3.343 2.689,-6.065 6.016,-6.13 3.327,0.065 6.016,2.787 6.016,6.129 0,0.622 -0.117,1.266 -0.359,1.971 -0.057,0.166 -0.084,0.34 -0.081,0.515 10e-4,0.041 0.003,0.079 0.007,0.115 -0.006,0.021 -0.01,0.035 -0.01,0.035 -0.118,0.465 -0.006,0.959 0.301,1.328 0.307,0.369 0.765,0.569 1.251,0.538 0.104,-0.007 0.208,-0.02 0.392,-0.046 3.383,0 6.136,2.753 6.136,6.136 0,0.572 -0.103,1.159 -0.322,1.849 -0.203,0.635 0.038,1.328 0.591,1.7 2.434,1.639 3.909,4.329 4.014,7.242 0,0.004 -0.001,0.008 -0.001,0.012 0,5.03 -4.092,9.123 -9.122,9.123 -5.03,0 -9.123,-4.093 -9.123,-9.123 0,-0.829 -0.672,-1.5 -1.5,-1.5 -0.828,0 -1.5,0.671 -1.5,1.5 0,6.685 5.438,12.123 12.123,12.123 2.228,0 4.31,-0.615 6.106,-1.668 1.92,2.09 2.978,4.763 2.978,7.55 z"
   id="path1"
   transform="matrix(1.4017942,0,0,1.4017942,-6.0029495,-6.4239271)" /><path
   d="m 38.179,6.766 c -4.684,0 -8.59,3.34 -9.435,7.825 -0.488,-0.085 -0.949,-0.126 -1.407,-0.126 -0.04,0 -0.079,0.005 -0.12,0.006 -0.04,-10e-4 -0.079,-0.006 -0.12,-0.006 -0.083,0 -0.163,0.011 -0.242,0.024 -4.813,0.253 -8.654,4.236 -8.654,9.111 0,0.514 0.049,1.03 0.149,1.556 -4.399,0.655 -7.785,4.458 -7.785,9.037 0,0.554 0.061,1.118 0.184,1.706 -2.827,2.293 -4.486,5.738 -4.486,9.414 0,3.159 1.266,6.193 3.505,8.463 -2.227,2.589 -3.446,5.839 -3.446,9.224 0,4.669 2.231,8.929 6.027,11.621 -0.347,1.204 -0.482,2.423 -0.402,3.639 0.19,2.915 1.503,5.582 3.699,7.509 2.196,1.928 5.015,2.879 7.926,2.693 0.455,-0.03 0.919,-0.096 1.4,-0.199 2.138,3.834 6.186,6.247 10.646,6.247 6.722,0 12.191,-5.469 12.191,-12.191 V 16.399 C 47.811,11.087 43.49,6.766 38.179,6.766 Z m 6.632,75.551 c 0,5.068 -4.123,9.191 -9.191,9.191 -3.697,0 -7.02,-2.2 -8.464,-5.604 -0.241,-0.567 -0.793,-0.914 -1.381,-0.914 -0.154,0 -0.311,0.023 -0.465,0.074 -0.724,0.235 -1.338,0.363 -1.933,0.402 -2.119,0.139 -4.158,-0.556 -5.751,-1.954 -1.594,-1.398 -2.547,-3.333 -2.685,-5.449 -0.076,-1.16 0.125,-2.336 0.598,-3.495 0.007,-0.017 0.005,-0.036 0.011,-0.053 1.342,-3.056 4.225,-4.953 7.597,-4.953 0.829,0 1.5,-0.672 1.5,-1.5 0,-0.828 -0.671,-1.5 -1.5,-1.5 -3.938,0 -7.501,2.007 -9.548,5.239 -2.701,-2.139 -4.277,-5.327 -4.277,-8.802 0,-2.787 1.06,-5.46 2.978,-7.549 1.796,1.053 3.879,1.668 6.107,1.668 6.685,0 12.123,-5.438 12.123,-12.123 0,-0.829 -0.671,-1.5 -1.5,-1.5 -0.829,0 -1.5,0.671 -1.5,1.5 0,5.03 -4.092,9.123 -9.123,9.123 -5.031,0 -9.123,-4.093 -9.123,-9.123 0,-0.002 -0.001,-0.004 -0.001,-0.006 0.103,-2.915 1.578,-5.607 4.013,-7.248 0.553,-0.372 0.793,-1.064 0.591,-1.699 -0.22,-0.691 -0.322,-1.278 -0.322,-1.85 0,-3.376 2.741,-6.125 6.195,-6.125 0.007,0 0.015,0 0.022,0 0.103,0.014 0.206,0.027 0.311,0.034 0.485,0.03 0.948,-0.171 1.254,-0.542 0.307,-0.372 0.417,-0.868 0.294,-1.334 0,-0.001 -0.003,-0.014 -0.008,-0.031 0.003,-0.035 0.006,-0.067 0.007,-0.095 0.005,-0.18 -0.022,-0.359 -0.081,-0.529 -0.242,-0.707 -0.359,-1.352 -0.359,-1.972 0,-3.342 2.688,-6.065 6.016,-6.129 3.328,0.065 6.016,2.787 6.016,6.13 0,0.829 0.671,1.5 1.5,1.5 0.829,0 1.5,-0.671 1.5,-1.5 0,-3.391 -1.861,-6.35 -4.612,-7.926 0.364,-3.346 3.16,-5.908 6.558,-5.908 3.657,0 6.632,2.976 6.632,6.633 v 65.919 z"
   id="path2"
   style="display:inline"
   transform="matrix(1.4017942,0,0,1.4017942,-6.0029495,-6.4239271)" /><path
   d="m 1.1474065,5.5667771 c -0.0021,0.0021 -0.0034,0.02815 -0.0034,0.05801 v 0.05417 l 0.03327,0.003 c 0.05588,0.0047 0.08702,0.01066 0.12626,0.02389 0.108771,0.03626 0.177872,0.113037 0.21029,0.232899 l 0.01152,0.0418 0.0026,0.351907 c 0.003,0.328873 0.0038,0.356172 0.01237,0.417596 0.05417,0.386031 0.210717,0.676513 0.482431,0.894909 0.294322,0.23631 0.720875,0.377499 1.199895,0.396268 l 0.0755,0.003 -4.29e-4,0.371528 c -4.29e-4,0.204319 -0.0017,0.52594 -0.0034,0.714904 l -0.003,0.343375 -0.01322,0.03967 c -0.03242,0.0964 -0.0947,0.164223 -0.193655,0.211571 -0.04436,0.02133 -0.09768,0.03796 -0.153133,0.04777 -0.05503,0.0094 -0.154838,0.01536 -0.203892,0.01237 l -0.04393,-0.003 0.0013,0.05033 0.0013,0.05033 0.04479,-8.54e-4 c 0.635565,-0.01066 1.062118,-0.01066 1.697683,0 l 0.04479,8.54e-4 0.0013,-0.05033 0.0013,-0.05033 -0.04393,0.003 c -0.04948,0.003 -0.148867,-0.003 -0.205172,-0.0128 -0.05631,-0.01024 -0.107492,-0.02602 -0.151853,-0.04735 -0.09896,-0.04735 -0.159531,-0.113037 -0.193229,-0.210718 l -0.01408,-0.04052 -0.0026,-0.358305 c -0.0017,-0.197068 -0.003,-0.518689 -0.0034,-0.714903 l -4.29e-4,-0.356599 0.07593,-0.003 c 0.424847,-0.01664 0.812159,-0.130526 1.099228,-0.322475 0.109199,-0.07337 0.2265,-0.180005 0.300294,-0.272994 0.154413,-0.194935 0.242283,-0.41205 0.282805,-0.697414 0.0081,-0.05929 0.009,-0.08958 0.01194,-0.41589 l 0.0026,-0.351907 0.01152,-0.0418 c 0.0354,-0.130952 0.114742,-0.210291 0.243988,-0.243563 0.02133,-0.0055 0.09896,-0.01536 0.119861,-0.01536 0.0051,0 0.006,-0.0098 0.0051,-0.05673 l -0.0013,-0.0563 -0.07251,4.28e-4 c -0.261904,8.54e-4 -0.499068,0.09256 -0.661158,0.255079 -0.09299,0.09342 -0.153986,0.196641 -0.200479,0.337404 -0.03583,0.108344 -0.05161,0.211996 -0.05759,0.37366 -0.0021,0.06014 -0.0073,0.136924 -0.01066,0.170621 -0.03242,0.293895 -0.12242,0.545135 -0.263609,0.733245 -0.03583,0.04777 -0.11133,0.126687 -0.156545,0.16337 -0.130526,0.105359 -0.293469,0.172328 -0.479873,0.197068 -0.05716,0.0077 -0.209438,0.01365 -0.233751,0.009 l -0.01578,-0.003 v -0.747324 c 4.29e-4,-0.806185 0.003,-0.958465 0.01664,-1.019035 0.03071,-0.134791 0.116876,-0.230766 0.246974,-0.2747 0.08659,-0.02943 0.180859,-0.0401 0.281525,-0.03199 0.03455,0.0026 0.06697,0.006 0.07251,0.0073 0.0094,0.0026 0.0094,0.0026 0.0094,-0.05332 v -0.05588 h -0.9087 -0.908558 v 0.05588 c 0,0.05588 0,0.05588 0.0098,0.05332 0.0051,-0.0013 0.03754,-0.0047 0.07209,-0.0073 0.100667,-0.0081 0.194935,0.0026 0.281525,0.03199 0.1237,0.0418 0.211144,0.134363 0.241856,0.255078 0.01919,0.07422 0.01877,0.05673 0.02047,0.94055 l 0.0021,0.845429 -0.01621,0.003 c -0.02474,0.0047 -0.176593,-0.0013 -0.234177,-0.009 -0.186404,-0.02474 -0.349347,-0.09171 -0.479873,-0.197068 -0.04521,-0.03668 -0.120714,-0.115596 -0.156545,-0.16337 -0.08659,-0.115169 -0.155692,-0.258491 -0.201333,-0.416316 -0.04479,-0.154412 -0.06569,-0.295174 -0.07294,-0.48755 -0.006,-0.16465 -0.02175,-0.26489 -0.05972,-0.380059 -0.105785,-0.322048 -0.353613,-0.522101 -0.713624,-0.576274 -0.05886,-0.009 -0.21157,-0.01578 -0.217115,-0.01024 z"
   id="path1-3"
   style="display:inline;fill:#0e8067;fill-opacity:1;stroke-width:0.000426554"
   transform="matrix(22.56512,0,0,22.56512,-16.498314,-109.73181)" /></svg>
