<?xml version="1.0" encoding="UTF-8"?>
<!DOCTYPE svg PUBLIC "-//W3C//DTD SVG 1.1//EN" "http://www.w3.org/Graphics/SVG/1.1/DTD/svg11.dtd">
<!-- Creator: CorelDRAW 2020 (64 Bit) -->
<svg xmlns="http://www.w3.org/2000/svg" xml:space="preserve" width="45mm" height="60mm" version="1.1" style="shape-rendering:geometricPrecision; text-rendering:geometricPrecision; image-rendering:optimizeQuality; fill-rule:evenodd; clip-rule:evenodd"
viewBox="0 0 4500 6000"
 xmlns:xlink="http://www.w3.org/1999/xlink"
 xmlns:xodm="http://www.corel.com/coreldraw/odm/2003">
 <defs>
  <style type="text/css">
   <![CDATA[
    .fil1 {fill:#BDBFC1}
    .fil2 {fill:#0E8067}
    .fil0 {fill:white}
   ]]>
  </style>
 </defs>
 <g id="Camada_x0020_1">
  <metadata id="CorelCorpID_0Corel-Layer"/>
  <g id="_2281475588720">
   <g>
    <path class="fil0" d="M2768.92 4829.54c14,61.12 34.48,109.54 64.38,146.78 42.69,53.14 92.01,42.55 116.9,79.95 -165.17,115.71 -301.12,-302.05 -268.42,-509.15 -76.77,8.93 -166.02,22.71 -241.54,4.72 -113.04,-26.92 -94.22,-74.81 -160.1,-117.45 -9.28,35.71 -17.57,47.2 -24.47,55.65l0.22 1.32 0.22 1.37 0.02 0.17 0.18 1.21 0.2 1.46 0.15 1.04 0.07 0.44 0.17 1.54 0.2 1.57 0.07 0.46 0.13 1.17 0.18 1.65 0.15 1.48 0.02 0.24 0.18 1.77 0.18 1.83 0.06 0.81 0.09 1.04 0.18 1.92 0.15 1.98 0 0.04 0.16 1.97 0.15 2.09 0.09 1.26 0.04 0.86 0.14 2.2 0.15 2.25 0.02 0.4 0.09 1.89 0.13 2.36 0.09 1.83 0.04 0.6 0.11 2.49 0.11 2.56 0.05 0.86 0.07 1.74 0.08 2.67 0.11 2.51 0 0.22 0.09 2.82 0.09 2.87 0.04 1.43 0.05 1.5 0.06 3 0.09 3.09 0 0.22 0.07 2.93 0.06 3.22 0.05 2.12 0.02 1.17 0.04 3.37 0.05 3.42 0.02 0.79 0.02 2.73 0.05 3.6 0.04 2.93 0 0.73 0.02 3.75 0.03 3.81 0.02 1.48 0 2.42 0.02 3.99 0.02 8.21 0 4.23 0 2.29 -0.02 2.03 0 4.39 -0.02 4.5 0 0.5 -0.02 4.06 -0.03 4.68 -0.02 3.26 0 1.48 -0.04 4.85 -0.05 4.91 0 1.35 -0.04 3.68 -0.05 5.12 -0.04 4.41 -0.02 0.81 -0.05 5.31 -0.06 5.41 -0.05 2.29 -0.04 3.2 -0.07 5.6 -0.08 5.69c-1.68,111.16 4.54,248.42 -1.19,354.18l-0.38 -0.26 -0.4 -0.26 -0.37 -0.27 -0.4 -0.29 -0.37 -0.26 -2.69 -1.85 -0.38 -0.25 -0.37 -0.26 -0.4 -0.26 -0.37 -0.27 -0.38 -0.26 -0.4 -0.27 -0.37 -0.24 -0.4 -0.27 -0.11 -0.08 -0.26 -0.18 -0.38 -0.26 -0.39 -0.25 -0.38 -0.26 -0.37 -0.24 -0.4 -0.27 -0.38 -0.26 -0.37 -0.25 -0.4 -0.26 -0.37 -0.24 -0.4 -0.27 -0.37 -0.24 -0.38 -0.26 -0.4 -0.25 -0.37 -0.26 -0.37 -0.24 -0.4 -0.25 -0.38 -0.26 -0.37 -0.24 -0.62 -0.42 -0.15 -0.09 -0.38 -0.24 -0.39 -0.25 -0.38 -0.24 -0.37 -0.24 -0.4 -0.27 -0.38 -0.24 -0.37 -0.24 -0.4 -0.24 -0.37 -0.25 -0.4 -0.24 -0.37 -0.24 -0.38 -0.24 -0.4 -0.25 -0.37 -0.24 -0.38 -0.24 -0.39 -0.24 -0.38 -0.25 -0.37 -0.24 -0.4 -0.24 -0.33 -0.22 -0.04 -0.02 -0.38 -0.22 -0.4 -0.25 -0.37 -0.24c0.37,17.68 0.99,34.77 1.87,51.15 166.01,-116.37 327.16,-96.33 416.19,88.55 38.5,79.9 55.7,185.25 90.71,258.15 49.04,102.17 145.19,38.01 234.75,20.77 -31.31,109.05 -207.89,174.86 -281.98,79.94 -16.31,51.18 -100.58,215.18 -135.88,137.41 14.84,-39.22 52.74,-1.79 67.86,-179.03 25.71,-301.01 -142.45,-483.44 -313.35,-327.49 -20.07,18.3 -37.66,35.14 -52.61,51.28l2.14 3.09 2.07 3.06 1.99 3.07 1.91 3.09 1.86 3.06 0.11 0.18 1.65 2.91c8.09,14.35 13.74,28.84 16.78,44.05 4.59,22.82 3.33,47.25 -4.23,75.32l-1.11 4.03 -0.04 0.22 -1.17 3.86 -0.02 0.05 -1.28 4.08 -1.21 3.79 -0.16 0.42 -1.47 4.23 -0.49 1.39 -1.06 2.91 -1.21 3.26 -0.44 1.11 -1.72 4.41 -0.31 0.75 -1.52 3.72 -1.1 2.69 -0.8 1.85 -2 4.59 -0.03 0.09 -2.05 4.58 -0.94 2.08 -1.24 2.64 -1.94 4.15 -0.33 0.66 -2.34 4.85 -0.68 1.41 -1.76 3.53 -1.79 3.55 -0.75 1.45 -2.62 5.07 -0.36 0.69 -2.36 4.45 -1.56 2.91 -1.26 2.32 -2.84 5.2 -0.05 0.09 -3 5.38 -1.23 2.2 -1.85 3.24c6.33,12.51 13.45,25.65 21.5,39.56 62.17,107.64 142.61,41.03 184.41,-69.72 17.68,-46.92 10.49,-85.66 20,-111.96 51.22,16.6 48.24,128.45 27.96,177.93 -9.13,22.29 -29.44,57.37 -40.6,74.15 -21.6,32.46 -40.43,35.3 -40.35,79.09 0.23,94.5 76.6,313.8 117.88,356.46 80.65,83.39 223.61,75.32 335.25,36.27 75.69,-26.48 81.09,-37.84 105.67,-126.56 32.31,-116.64 -1.58,-135.07 7.19,-227.45 88.99,12.08 50.69,217.73 42.29,300.98 82.88,61.87 280.06,68.29 351.94,-75.12 -14.02,-61.05 -38.91,-90.86 -20.5,-174.93 12.81,-58.58 49.47,-95.74 96.86,-112.12 -21.88,80.04 -74.75,76.38 -58.04,161.71 11.16,56.9 45.36,110.02 100.1,108.65 175.47,-4.41 217.93,-251.26 317.39,-301.18 195.64,-98.18 153.9,-104.36 191.67,-221.97 14.38,-44.75 74.75,-82.52 19.8,-145.21 -88.81,-101.33 -210.36,-7.14 -233.32,78.56 -37.3,139.35 61.23,267.52 -179.05,167.35 -153.44,-63.96 -270.56,-90.84 -378.05,127.49 -22.93,46.5 -34.94,119.83 -73.73,148.32 16.36,-295.9 139.19,-245.71 151.12,-449.31 6.51,-110.93 -24.32,-164.86 -68.68,-222.47l-128.21 -171.65c30.01,-55.36 117.3,-40.44 195.68,-162.45 53.75,-83.74 108.19,-421.81 -289.5,-287.52 -91.85,31.03 -175.9,54 -271.86,79.49 -8.49,81.98 1.77,226.81 25.67,293.73zm1239.02 -1207.56l31.57 198.95c68.62,-31.07 177.78,-145.96 210.52,-205.76 89.89,-164.06 -47.8,-199.3 -152.09,-226.73 -15.72,-13.95 -46.17,-29.34 -65.42,-45.46 -45.53,-38.14 -136.32,-171.83 -106.6,-233.61 17.66,16.06 43.3,71.75 58.43,93.78 17.35,25.31 51.19,65.37 71.13,79.79 7.73,11.38 2.84,5.6 13.16,16.12 51.94,53.05 119.41,21.76 208.56,109.47 124.2,122.19 34.59,199.12 20.35,250.96 38.98,60.59 44.25,43.1 84.49,140.56 33.16,-46.66 69.85,-99.51 157.8,-109.67l0 -249c-34.11,-51.22 -64.96,-333.13 -122.48,-396.65 -120.47,-133.02 -251.6,80.14 -343.1,59.93 -0.31,-1.97 -138,-267.17 -162.7,-293.93 -57.56,-62.42 -214.99,-120.83 -182.54,170.74 28.27,254 134.41,344.11 212.68,488.38 15.79,29.06 64.85,150.35 66.24,152.13zm-758.19 -1596.98l83.96 168.14c63.97,99.31 201.2,230.94 303.3,100.97l94.68 -163.54c43.08,-33.4 83.98,-98.98 103.5,-154.63 23.3,-66.49 43.37,-135.42 48.39,-214.07 5.41,-84.29 -9.7,-160.91 -40.28,-222.07 -18.52,-37.04 -87.02,-130.81 -104.46,-145.15 -25.23,-53.31 -154.01,-171.93 -217.71,-223.48 1.65,-88.97 113.55,-347.2 -184.99,-417.82 -1.92,71.79 0.09,191.58 -70.31,186.84 -31.03,-121.75 102.1,-220.13 -113.99,-333.51 -330.18,-173.23 -311.86,313.44 -680.82,385.46 -100.63,19.64 -113.49,-5.43 -183.56,-42.89 1.44,66.37 -13.62,116.7 -32.78,167.42l0.99 2.49 0.04 0.13 0.93 2.38 0.99 2.51 0.53 1.39 0.46 1.15 1 2.54 0.99 2.53 0.02 0.11 0.95 2.43 0.99 2.55 0.53 1.42 0.46 1.16 1 2.58 0.97 2.58 0.04 0.11 0.95 2.5 1.5 4.03 0.46 1.19 1.96 5.29 0.02 0.11 0.95 2.56 0.97 2.67 0.51 1.43 0.46 1.26 0.95 2.69 0.97 2.73 0.02 0.09 0.93 2.65 0.95 2.73 0.48 1.48 0.44 1.28 0.95 2.8 0.93 2.77 0.02 0.09 0.9 2.74 1.39 4.32 0.44 1.37 0.91 2.86 0.9 2.89 0 0.07 0.88 2.82 0.89 2.93 0.46 1.54 0.42 1.42 0.86 2.95 0.86 3 0 0.06 1.67 5.96 0.42 1.58 1.79 6.73 0.24 0.93 0.02 0.04 0.77 3.06 0.8 3.16 0.39 1.63 0.38 1.52 0.75 3.2 0.75 3.22 0.02 0.04 0.73 3.2 0.73 3.28 0.35 1.68 0.35 1.61 1.39 6.68 0 0.02 0.66 3.35 0.66 3.4 0.33 1.74 0.31 1.7 0.62 3.46 0.62 3.48 0.02 0.02 0.57 3.51 0.6 3.55 0.28 1.79 0.27 1.78 0.55 3.62 0.53 3.64 0.02 0 0.51 3.66 0.48 3.7 0.27 1.87 0.22 1.88c143.4,-101.73 194.09,-17.68 364.93,-170.11 11.13,-9.92 19.6,-19.99 29.23,-30.56 15.66,-17.13 15.57,-18.78 32.77,-31.64 -20.46,84.63 -89.1,127.4 -129.96,180.25 45.49,39.07 112.8,44.65 103.12,129.18 -51.57,-0.52 -89.65,-65.35 -166.66,-79.5 -95.61,-17.55 -212.4,44.89 -282.75,146.14l1.16 2.13 0.47 0.91 1.61 3.06 1.56 3.07 1.55 3.08 1.52 3.11 1.47 3.13 1.46 3.16 1.43 3.15 1.41 3.18 0.47 1.05 0.9 2.14 1.32 3.2 1.31 3.22 0.28 0.68 0.99 2.56 2.39 6.35 0.06 0.18 0.11 0.28 0.22 0.66 3.07 8.82 0.04 0.11 1.06 3.33 1.76 5.69 0.16 0.46 0.15 0.53 1.9 6.75 0.66 2.45 0.24 0.95c1.48,5.66 2.82,11.37 3.99,17.15l0.33 1.63 0.36 1.83 1.25 6.97 0.22 1.21 0.11 0.66 1.28 8.67 0.11 0.79 0.05 0.42 1.1 9.37 0 0.05 0.04 0.37 0.05 0.44 0.77 9.33 0.04 0.51 0 0.06 0.03 0.27 0.48 10.03 0.02 0.51 0.16 9.94 0 0.95 -0.18 9.46 0 0.13c-0.22,6.57 -0.66,13.18 -1.32,19.82l-0.13 1.35 -0.03 0.17c-0.68,6.77 -1.63,13.54 -2.8,20.35l-0.06 0.47 -0.07 0.46 -0.2 0.99 -1.87 9.79 -0.62 2.91 -0.11 0.44 -0.53 2.47 -0.22 0.9 -0.46 2.03 -0.31 1.35 -0.38 1.59 -0.44 1.8 -0.28 1.13 -0.55 2.27 -0.18 0.66 -0.71 2.73 -0.04 0.23 -0.77 2.95 -0.07 0.22 -0.73 2.73 -0.19 0.69 -0.62 2.27 -0.33 1.15 -0.49 1.83 -0.46 1.6 -0.4 1.35 -0.59 2.07 -0.25 0.91 -0.74 2.53 -0.14 0.47 -0.88 2.97 0 0.02 -0.88 2.98 -0.16 0.46 -0.75 2.52 -0.28 0.94 -0.62 2.06 -0.42 1.41 -0.48 1.58 -0.6 1.88 -0.33 1.14 -0.73 2.32 -0.2 0.68 -0.88 2.8 -0.06 0.22 -0.93 3 -0.09 0.27 -0.86 2.75 -0.22 0.73 -0.7 2.29 -0.38 1.19 -0.57 1.83 -0.51 1.66 -0.44 1.37 -0.66 2.13 -0.27 0.91 -0.81 2.58 -0.13 0.44 -0.93 3.04 0 0.02 -0.93 3 -0.15 0.51 -0.77 2.53 -0.29 0.95 -0.62 2.08 -0.44 1.43 -0.46 1.61 -0.57 1.92 -0.33 1.12 -0.69 2.38 -0.2 0.66 -0.81 2.85 -0.07 0.2 -0.86 3.04 -0.09 0.26 -0.77 2.78 -0.2 0.73 -0.64 2.31 -0.33 1.22 -0.48 1.83 -0.44 1.67 -0.38 1.37 -0.55 2.14 -0.22 0.9 -0.66 2.63 -0.11 0.42 -0.75 3.04 -0.02 0.04 -0.71 3 -0.13 0.51 -0.6 2.53 -0.22 1 -0.46 2.05 -0.31 1.45 -0.35 1.59 -0.4 1.92 -0.24 1.12 -0.48 2.38 -0.14 0.66 -0.53 2.85 -0.04 0.2 -0.55 3.04 -0.07 0.26 -0.46 2.76 -0.13 0.75 -0.38 2.29 -0.2 1.19 -0.26 1.83 -0.27 1.68 -0.17 1.37 -0.31 2.11 -0.11 0.91 -0.31 2.6 -0.07 0.42 -0.33 3.02 0 0.04 -0.28 2.98 -0.07 0.51 -0.2 2.51 -0.09 0.97 -0.15 2.03 -0.09 1.43 -0.09 1.59c3.69,19.95 5.56,39.82 4.28,59.38l0.46 2.93 0.03 0.24 0.46 2.71 0.11 0.73 0.37 2.25 0.2 1.21 0.31 1.79 0.29 1.72 0.24 1.28 0.4 2.22 0.13 0.8 0.51 2.73 0.04 0.29 0.57 3.04 0.03 0.22 0.55 2.85 0.13 0.7 0.46 2.36 0.22 1.23 0.38 1.86 0.33 1.74 0.26 1.34 0.47 2.27 0.15 0.84 0.57 2.78 0.07 0.33 0.64 3.13 0.04 0.2 0.6 2.93 0.15 0.71 0.51 2.45 0.27 1.21 0.39 1.94 0.38 1.74 0.31 1.41 0.48 2.27 0.18 0.91 0.61 2.8 0.07 0.35 0.71 3.2 0.02 0.15 0.66 3.02 0.15 0.69 0.56 2.49 0.26 1.23 0.44 1.96 0.4 1.75 0.31 1.45 0.5 2.27 0.2 0.93 0.64 2.82 0.09 0.4 0.7 3.19 0.05 0.14 0.68 3.06 0.16 0.66 0.55 2.56 0.28 1.19 0.45 2.01 0.39 1.74 0.84 3.73 0.2 0.94 0.64 2.78 0.09 0.44 0.7 3.2 0.02 0.11 0.69 3.09 0.15 0.64 0.58 2.55 0.26 1.17 0.44 2.03 0.38 1.7 0.33 1.5 0.48 2.2 0.22 0.97 0.6 2.76 0.11 0.44 0.68 3.17 0.02 0.09 0.66 3.09 0.14 0.6 0.55 2.55 0.24 1.13 0.44 2.03 0.35 1.65 0.31 1.5 0.47 2.16 0.19 0.99 0.56 2.67 0.11 0.46 0.64 3.13 0.02 0.05 0.61 3.06 0.11 0.58 0.51 2.53 0.22 1.06 0.4 2.03 0.31 1.59 0.28 1.49 0.42 2.08 0.18 0.99 0.51 2.58 0.09 0.46 0.57 3.05 0 0.04 0.55 3 0.11 0.53 0.44 2.49 0.18 1.01 0.35 1.99 0.26 1.5 0.27 1.47 0.33 1.99 0.15 0.99 0.42 2.47 0.09 0.48 0.46 2.94 0.31 2 0.33 2.08 0.11 0.7 0.22 1.43 0.31 2.19 0.25 1.5 0.11 0.75 0.33 2.31 0.33 2.36 0.02 0.02 0.33 2.41 0.35 2.49 0.11 0.84 0.25 1.69 0.35 2.58 0.24 1.79 0.11 0.86 0.35 2.69 0.38 2.75 0 0.03 0.35 2.75 0.38 2.85 0.13 0.99 0.22 1.9 0.37 2.95 0.27 2.01 0.11 0.97 0.37 3.04 0.38 3.06 0 0.05 0.37 3.09 0.38 3.15 0.13 1.12 0.24 2.1 0.38 3.24 0.26 2.25 0.11 1.03 0.38 3.33 0.37 3.38 0 0.06 0.38 3.35 0.37 3.44 0.13 1.22 0.25 2.25 0.37 3.52 0.27 2.43 0.11 1.12 0.37 3.57 0.35 3.62 0.03 0.09 0.35 3.55 0.37 3.68 0.14 1.32 0.22 2.38 0.37 3.73 0.24 2.62 0.11 1.15 0.36 3.79 0.35 3.82 0.02 0.11 0.33 3.72 0.36 3.89 0.11 1.41 0.22 2.47 0.35 3.9 0.22 2.75 0.11 1.19 0.33 3.95 0.33 3.97 0.02 0.15 0.31 3.86 0.31 4.02 0.13 1.47 0.2 2.54 0.31 4.06 0.22 2.84 0.09 1.21 0.29 4.08 0.3 4.08 0 0.18 0.29 3.92 0.29 4.12 0.09 1.55 0.17 2.58 0.29 4.14 0.17 2.94 0.09 1.21 0.25 4.14 0.26 4.17 0 0.18 0.24 3.99c42.03,-213.52 187.59,-362.06 204.66,-308.79 -53.93,55.6 -116.09,122.06 -145.63,221.14 -63.75,213.9 39.53,250.08 39.2,307.89 -39.6,16.76 -76.97,-26.21 -95.25,-81.42l-0.02 0.72 -0.07 2.36 -0.09 3.09 -0.11 3.06 -0.02 0.42 -0.09 2.63 -0.13 3.04 -0.13 3 0 0.11 -0.13 2.89 -0.16 2.97 -0.15 2.76 0 0.2 -0.18 2.93 -0.18 2.91 -0.15 2.4 -0.02 0.49 -0.2 2.87 -0.22 2.84 -0.16 2.07 -0.06 0.75 -0.22 2.8 -0.24 2.8 -0.16 1.72 -0.09 1.04 -0.26 2.71 -0.27 2.71 -0.15 1.41 -0.13 1.28 -0.29 2.65 -0.31 2.64 -0.11 1.11 -0.2 1.5 -0.31 2.55 -0.35 2.56 -0.09 0.82 -0.24 1.69 -0.35 2.5 -0.38 2.47 -0.09 0.55 -0.28 1.89 -0.4 2.41 -0.4 2.36 -0.04 0.28 -0.37 2.07 -0.42 2.3 -0.44 2.29 0 0.04 -0.45 2.21 -0.46 2.2 -0.44 2.01 -0.04 0.18 -0.49 2.16 -0.51 2.11 -0.39 1.7 -0.11 0.38 -0.16 0.66 -0.9 3.39 -0.38 1.42 -0.17 0.55 -0.55 1.94 -0.58 1.89 -0.35 1.15 -0.24 0.73 -1.21 3.61 -0.31 0.88 -0.31 0.86 -0.66 1.72 -0.64 1.66 -0.27 0.68 -0.42 0.95 -1.36 3.13 -0.22 0.46 -1.79 3.62 -0.18 0.33 -0.13 0.29 -0.62 1.08 -1.39 2.36 -0.15 0.26 -0.07 0.13 -0.26 0.38 -2.09 3.11 0.13 2.84 0 0.35 0.09 2.5 0.02 0.7 0.02 2.14 0.02 1.08 0 0.35 0 2.87 0 1.45 -0.02 1.79 -0.02 1.08 -0.05 2.14 -0.02 0.75 -0.11 2.51 0 0.38 -0.15 2.86 0 0.03 -0.18 2.91 -0.02 0.33 -0.18 2.56 -0.04 0.7 -0.2 2.21 -0.09 1.03 -0.17 1.85 -0.14 1.41 -0.15 1.5 -0.2 1.77 -0.15 1.14 -0.25 2.12 -0.11 0.77 -0.33 2.49 -0.06 0.42 -0.42 2.85 0 0.06 -0.47 2.89 -0.04 0.31 -0.44 2.58 -0.11 0.66 -0.4 2.23 -0.17 1.01 -0.38 1.88 -0.26 1.36 -0.31 1.5 -0.36 1.75 -0.24 1.14 -0.44 2.07 -0.18 0.8 -0.57 2.42 -0.09 0.42 -0.68 2.78 -0.02 0.07 -0.71 2.84 -0.06 0.29 -0.69 2.56 -0.15 0.61 -0.62 2.19 -0.26 0.97 -0.53 1.85 -0.38 1.3 -0.46 1.48 -0.49 1.65 -0.35 1.15 -0.64 1.98 -0.24 0.77 -0.77 2.32 -0.13 0.44 -0.91 2.64 -0.04 0.09 -0.95 2.74 -0.09 0.24 -0.9 2.47 -0.2 0.57 -0.82 2.12 -0.33 0.88 -0.7 1.79 -0.49 1.21 -0.57 1.45 -0.64 1.53 -0.46 1.1 -0.78 1.85 -0.33 0.77 -0.08 0.2 -1.06 2.38 -1.08 2.47 -0.07 0.11 -1.19 2.56 -0.09 0.2 -1.12 2.31 -0.25 0.51 -0.99 2.01 -0.39 0.81 -0.86 1.68 -0.56 1.1 -0.72 1.34 -0.73 1.39 -0.57 1.04 -0.91 1.68 -0.42 0.72 -1.1 1.97 -0.24 0.41 -1.28 2.23 -0.09 0.13 -1.39 2.32 -0.09 0.15 -1.32 2.14 -0.29 0.44 -1.16 1.81 -0.45 0.71 -1.01 1.54 -0.64 0.97 -0.84 1.21 -0.83 1.24 -0.67 0.95 -1.03 1.45 -0.49 0.68 -1.23 1.7 -0.31 0.4 -1.43 1.94 -0.11 0.13 -1.59 2.03c9.81,19.34 21.74,36.42 35.3,49.76 60.12,59.12 126.65,28.6 179.45,62.51 -34.97,65.71 -122.46,42.82 -183.53,28.51 22.36,92.6 152.13,92.01 160.38,353.04 -30.4,-32.25 -28.95,-79.51 -56.09,-131.21 -22.07,-42.09 -50.05,-72.83 -100.23,-87.2 -0.03,74.15 -8.47,140.03 -20.58,201.72l1.64 7.34 0.55 2.47 1.12 4.83 1.32 5.8 0.36 1.48 1.7 7.25 0.44 1.83 1.3 5.4 1.74 7.19 1.74 7.17 0.29 1.21 3.26 13.05 1.81 7.12 0.13 0.58 1.65 6.5 0.97 3.84 0.84 3.24 1.79 7.03 0.02 0.03 1.81 7.05 0.81 3.2 1 3.83 1.63 6.42 0.17 0.62 1.79 7.01 0.66 2.58 1.15 4.43 1.45 5.8 0.33 1.21 1.77 7.01 0.51 1.99 1.25 5 1.3 5.21 0.47 1.8 1.72 7.02 0.35 1.39 1.37 5.62 1.1 4.58 0.59 2.43 1.68 7.01 0.18 0.79 1.47 6.24 0.93 4.02 0.7 3.04 1.59 7.05 0.05 0.18 1.52 6.88 0.75 3.42 0.79 3.66 1.41 6.68 0.09 0.42 2.03 9.96 0.86 4.3 1.19 6.11 0.2 1.04 1.76 9.43 0.91 4.96 0.97 5.56 0.28 1.68 1.21 7.27 0.27 1.63 0.07 0.49 1.58 10.16 0.36 2.32 1.05 7.36 0.16 1.04 0.86 6.35 0.57 4.45 0.38 2.98 0.88 7.47 0.04 0.42 0.77 7.08 0.05 0.42 0.64 6.24 0.09 0.9 0.68 7.37 0.02 0.22 0.62 7.63 0.26 3.28 0.31 4.39 0.44 6.86 0.05 0.88 0.02 0.55 0.53 9.9 0.22 5.16 0.22 6.31 0.24 9.52 0.05 2.03 0.06 5.95 0.05 5.73 0 2.32 -0.07 8.11 -0.02 1.39 0 0.11 -0.2 9.68 -0.04 2.16 -0.11 3.07 -0.31 8.31 -0.05 0.71 -0.57 10.91 -0.07 1.3 -0.24 3.86 -0.59 8.51 -2.63 0.26 -2.62 0.29 -2.63 0.27 -2.47 0.24 -0.13 0 -2.62 0.26 -2.6 0.25 -2.58 0.24 -2.3 0.22 -0.3 0.02 -2.58 0.24 -2.58 0.22 -2.56 0.22 -2.12 0.18 -0.44 0.04 -2.58 0.2 -2.53 0.2 -2.56 0.2 -1.94 0.15 -0.6 0.05 -2.53 0.17 -2.54 0.2 -2.51 0.18 -1.79 0.11 -0.73 0.04 -2.51 0.18 -2.51 0.15 -2.49 0.16 -1.64 0.09 -0.88 0.04 -2.47 0.13 -2.49 0.14 -2.47 0.13 -1.48 0.06 -0.99 0.07 -2.47 0.11 -2.47 0.11 -2.44 0.11 -1.31 0.04 -1.14 0.05 -2.45 0.09 -2.42 0.09 -2.43 0.06 -1.17 0.05 -1.26 0.04 -2.42 0.04 -2.4 0.07 -11.98 0.2 -0.86 0 -1.52 0.02 -4.74 0.02 -2.36 0 -0.7 0 -1.66 0 -2.33 -0.02 -2.34 -0.02 -2.34 -0.02 -0.57 -0.03 -1.77 -0.02 -4.63 -0.09 -2.31 -0.04 -0.42 -0.02 -1.9 -0.05 -6.87 -0.22 -0.29 -0.02 -2.01 -0.06 -4.54 -0.2 -2.27 -0.11 -0.13 0 -2.12 -0.11c0.38,9.63 0.93,19.38 1.68,29.3 221.34,23.35 380.2,-9.57 477.59,-175.18 111.35,-189.33 52.3,-405.91 -10.98,-602.74 -94.65,-294.42 -68.2,-318.16 24.54,-583.05 78.76,-224.88 145.35,-350 19.93,-568.22 -42.2,-46.94 -70.64,-81.71 -151.47,-59.2 -39.4,10.98 -110.6,59.55 -132.67,78.41 34.2,-51.16 63.26,-106.41 106.12,-146.05 79.4,-73.38 119.35,-3.05 170.35,24.6 13.34,-155.22 85.66,-280.26 194.29,-332.4 38.08,-18.28 99.57,-30.63 135.91,0.46 -28.38,0.82 -53.16,-4.34 -71.2,11.22 -103.67,-6.08 -178.77,116.07 -188.67,241.92 -12.7,161.71 55.19,223.73 71.66,378.6 36.38,-55.65 114.32,-128.3 200.64,-137.85 126.43,-13.96 172.29,70.27 233.21,113.57zm-1051.08 -744.25c-5.33,23.26 -9.68,48.53 -12.56,76.42l0.48 0.46 0.46 0.45 0.49 0.46 0.48 0.46 0.47 0.44 0.48 0.47 0.95 0.92 0.46 0.46 0.49 0.47 0.46 0.46 0.46 0.46 0.49 0.47 0.46 0.46 0.47 0.46 0.48 0.49 0.46 0.46 0.47 0.46 0.46 0.49 0.46 0.46 0.47 0.47 0.15 0.13 0.31 0.35 0.46 0.46 0.47 0.49 0.46 0.48 0.46 0.47 0.46 0.48 0.47 0.49 0.46 0.48 0.46 0.46 0.47 0.49 0.44 0.48 0.46 0.49 0.46 0.49 0.44 0.48 0.4 0.4 0.07 0.09 0.46 0.48 0.44 0.49 0.46 0.5 0.45 0.49 2.24 2.47 0.45 0.48 0.46 0.51 0.44 0.48 0.44 0.51 0.44 0.51 0.18 0.17 0.26 0.31 0.44 0.51 0.44 0.51 0.45 0.5 3.5 4.06 0.42 0.51 0.44 0.51c18.43,-18.57 35.61,-34.49 51.64,-48.22l-1.17 -1.13 -2.34 -2.25 -1.17 -1.12 -1.14 -1.1 -1.17 -1.11 -1.15 -1.08 -0.44 -0.44 -0.7 -0.64 -1.15 -1.08 -1.15 -1.08 -1.12 -1.06 -1.15 -1.06 -1.12 -1.05 -1.13 -1.04 -1.12 -1.04 -3.35 -3.06 -1.11 -1.02 -1.1 -0.99 -1.1 -0.99 -1.1 -0.99 -1.1 -0.99 -1.11 -0.97 -1.08 -0.97 -1.08 -0.95 -1.08 -0.97 -1.08 -0.95 -1.08 -0.93 -1.08 -0.94 -1.06 -0.93 -1.08 -0.93 -4.21 -3.61 -1.06 -0.91 -1.06 -0.88 -1.03 -0.88 -1.04 -0.86 -1.04 -0.88 -1.03 -0.86 -3.09 -2.54 -1.01 -0.84 -2.05 -1.65 -1.02 -0.82 -0.99 -0.81 -1.01 -0.79 -3 -2.39 -1.02 -0.79 -0.99 -0.77 -0.97 -0.77 -0.99 -0.75 -0.99 -0.77 -0.97 -0.75 -2.94 -2.23 -0.97 -0.73zm-11.79 1044c-3.02,38.68 -5.38,79.66 -6.35,119.44l0.44 -1.32 0.24 -0.75 0.18 -0.58 0.42 -1.32 0.39 -1.32 0.22 -0.75 0.18 -0.6 0.4 -1.32 0.39 -1.34 0.2 -0.71 0.18 -0.64 0.37 -1.34 0.36 -1.37 0.17 -0.66 0.18 -0.69 0.35 -1.36 0.33 -1.35 0.18 -0.66 0.15 -0.71 0.33 -1.36 0.31 -1.37 0.16 -0.62 0.15 -0.77 0.31 -1.37 0.29 -1.36 0.13 -0.58 0.15 -0.81 0.29 -1.37 0.27 -1.39 0.08 -0.53 0.16 -0.86 0.57 -3.26 0.16 -0.88 0.22 -1.39 0.22 -1.39 0.06 -0.46 0.16 -0.93 0.2 -1.39 0.17 -1.39 0.07 -0.42 0.11 -0.97 0.17 -1.39 0.18 -1.38 0.04 -0.4 0.11 -0.99 0.14 -1.39 0.15 -1.39 0.02 -0.35 0.09 -1.04 0.13 -1.39 0.11 -1.37 0.03 -0.33 0.06 -1.06 0.09 -1.38 0.09 -1.39 0 -0.27 0.07 -1.1 0.06 -1.39 0.05 -1.37 0.02 -0.24 0.02 -1.15 0.04 -1.36 0.03 -1.37 0 -0.2 0 -3.9 0 -0.16 0 -1.21 -0.03 -1.34 -0.04 -1.37 0 -0.11 -0.04 -1.23 -0.11 -2.69 -0.03 -0.07 -0.06 -1.28 -0.09 -1.32 -0.09 -1.35 0 -0.04 -0.11 -1.28 -0.11 -1.32 -0.13 -1.33 -0.07 -0.5 -0.04 -0.51 -0.07 -0.51 -0.11 -1.01 -0.07 -0.51 -0.59 -5.05 -0.07 -0.51 -0.06 -0.5 -0.07 -0.51 -0.06 -0.51 -0.07 -0.48 -0.05 -0.51 -0.02 -0.11 -0.04 -0.4 -0.07 -0.5 -0.06 -0.51 -0.07 -0.49 -0.09 -0.5 -0.06 -0.51 -0.07 -0.51 -0.07 -0.5 -0.06 -0.49 -0.07 -0.51 -0.06 -0.5 -0.07 -0.49 -0.09 -0.51 -0.07 -0.5 -0.06 -0.51 -0.07 -0.48 -0.06 -0.51 -0.09 -0.51 -0.07 -0.48 -0.06 -0.51 -0.38 -2.49 -0.07 -0.51 -0.08 -0.48 -0.07 -0.51 -0.09 -0.49 -0.06 -0.5 -0.09 -0.49 -0.07 -0.51 -0.09 -0.5 -0.06 -0.49 -0.09 -0.51 -0.07 -0.48 -0.09 -0.51 -0.06 -0.48 -0.09 -0.51 -0.09 -0.49 -0.06 -0.5 -0.09 -0.49zm2095.45 -364.88c-35.43,-200.47 -124.31,-235.35 -120.03,-422.76 1.19,-51.9 -15.48,-113.2 -32.15,-150.9 -22.6,-51.09 -121.48,-160.95 -162.78,-181.57 -97.3,-48.6 -180.25,34.09 -220.44,82.7 65.57,71.33 151.49,187.44 195.28,322.71 30.85,95.23 82.55,7.85 184.97,202.49 16.69,31.75 24.96,74.83 45.22,98.67 -1.46,62.15 25.51,148.5 22.14,246 -1.13,32.78 -12.95,109.38 -11.05,130.81 3,33.58 26.72,57.39 39.11,97.08 51.8,165.74 -73.44,317.06 -157.45,355.6 28.47,-56.2 177.25,-189.49 125.35,-327.33 -19.75,-52.44 -39.8,-50.89 -69.87,-87.25 5.69,-117.78 28.42,-219.27 3,-339.95 -18.17,-86.21 -93.55,-180.97 -153.59,-208.58 -1.99,170.7 -61.32,222.36 -76.78,285.62 41.9,43.17 70.74,62.91 91.46,134.39 17.95,61.76 2.74,136.08 -32.92,172.99 17.8,-56.62 28.95,-112.62 0.49,-171.62 -17.84,-37.05 -70.54,-99.29 -121.95,-90.82 -68.2,11.24 -138.95,181.41 -186.09,250.95 -69.77,102.95 -184.24,82.44 -271.2,3.14 -91.86,-83.75 -98.78,-159.9 -164.86,-273.3 -85.48,-146.69 -250.38,-160.86 -380.65,21.43 -35.05,49.06 -40.52,92.39 -60.3,162.72 -46.1,163.98 -31.68,146.54 -97.03,344.67 -18.79,56.9 -34.49,125.85 -28.01,194.42 5.6,59.6 29.92,129.76 62.6,160.18 3.04,34.25 29.96,97.7 41.01,145.81 11.95,52.06 20.06,107.42 22.64,163.43 6.29,316.53 -81.93,300.1 -46.47,380.49 42.73,96.9 116.04,185.12 205.07,225.84 89.49,40.97 148.25,10.41 226.84,-18.12 327,-118.69 650.69,-67.23 592.13,457.95 40.79,-12.19 59.45,-25.64 106.48,-33.69 45.5,-7.76 56.82,-16.23 74.12,-58.76 62.6,-153.92 38.63,-675.22 -53.75,-761.08 -3.2,-34.28 -21.26,-59.28 -43.11,-96.68 -119.15,-203.9 -257.55,-335.58 -195.72,-523.41 13.51,-41.1 26.85,-70.8 49.96,-100.3l66.72 -73.4c160.67,-56.99 200.51,76.27 272.12,242.05 18.83,43.57 30.87,102.09 67.16,115.89 42.58,-61.69 32.59,-88.68 116.62,-113.16 78.32,-22.77 125.92,-4.45 190.9,19.63 -4.81,-31.82 -32.5,-139.15 -44.54,-171.39 -20.4,-54.65 -69.72,-69.93 -79.62,-128.08 16.1,-54.15 58.71,-39.33 81.05,-126.89 20.06,-78.69 12.22,-203.57 -43.77,-267.64 -29.03,-33.25 -19.2,-20.27 -14.26,-83.63 4.12,-52.94 5.33,-173.48 -14.05,-207.35zm-839.74 2639.09c10.34,183.66 -84.18,292.93 -232.35,296.97 15.99,41.54 43.53,75.36 66.74,116.08 24.83,43.51 36.49,78.94 59.49,125.73 177.73,17.06 165.32,-144.6 231,-268.84 64.25,-121.53 171.48,-174.28 333.14,-174.28 204.5,0 317.41,-163.93 408.8,-360.91 42.13,-90.82 76.18,-212.28 71.68,-336.39 -4.41,-121.58 -55.23,-247.54 -109.56,-302.86 -26.24,17.08 -27.8,26.43 -50.71,54.9 -17.4,21.58 -32.74,32.08 -56.14,55.3l-114.17 98.68c-13.53,17.91 -46.85,333.8 -62,394.76 -46.41,186.82 -151.25,75.19 -280.19,137.45 -96.13,46.42 -174.87,121.54 -265.73,163.41zm1097.25 -574l0 -251.55c-51.73,9.81 -72.5,26.44 -97.68,70.36 -34.11,59.53 -21.43,76.2 -14.35,145.06 27.19,264.45 -175.22,621.37 -308.86,719.13 -170.59,124.8 -377.01,-42.37 -479.42,152.69 -85.24,162.3 -69.52,407.83 -289.96,342.13 -4.68,95.71 3.37,96.9 -21.28,181.7 89.28,-14.68 97.48,-25.29 193.39,3.24 64.67,19.21 112.4,50.03 166.69,67.93 26.92,-415.24 411.16,-429.88 407.54,-143.13 39.84,-14.69 92.34,-59.67 113.51,-83.72 76.09,-86.5 111.34,-174.85 14.84,-264.04 -60.39,-55.8 -109.72,4.9 -139.17,-18.87 25.71,-31.53 180.82,-90.42 241.1,55.61 127.9,-71.95 81.62,-338.49 85.08,-515.85 2.21,-113.11 103.52,-425.45 128.57,-460.69zm-1351.01 -2642.74c120.39,61.45 211.29,100.34 306.63,186.44 69.59,62.82 170.39,224.43 85.15,379.26 -12.06,-150.37 -38.96,-268.46 -151.67,-365.76 -61.73,-53.3 -90.84,-48.29 -172,-67.8 -79.84,-19.19 -100.39,-45.56 -142.65,-91.06 -70.38,-152.34 73.68,-408.17 -121.03,-415.36 -57.94,-2.13 -88.21,33.8 -139.43,28.01 -32.02,-126.89 192.59,-150.09 310.55,-12.33 61.16,71.39 2.16,123.12 -28.11,186.53 -45.91,96.13 -15.35,138.44 52.56,172.07zm-944.07 2804.45c11.42,66.12 19.84,115.73 58.38,162.3 113.53,137.05 189.99,134.76 389.07,106.12 141.33,-20.33 285.22,-52.87 421.61,-88.61 81.76,-21.44 136.73,-39.58 203.09,15.61 51.82,43.08 68.49,97.74 96.4,148.49l6.55 10.92c0.84,1.32 2.89,4.03 3.57,5.09 0.71,1.06 2.38,3.42 3.68,4.98 49.79,-30.89 108.06,-84.8 164.71,-123.36 28.77,-19.6 62.11,-32.15 75,-70.71 55.06,-164.72 12.97,-441.59 -279.17,-440.88 -267.72,0.68 -313.78,261.45 -398.75,299.79 9.57,-55.14 33.69,-89.56 56.57,-128.41 25.65,-43.61 57.48,-72.71 74.75,-110.24 -175.73,20.02 -326.81,-55.26 -429.69,-211.67l-25.22 -45.64c-9.06,-14.26 -4.59,-8.22 -11.57,-15.68 -107.09,104.98 -213.3,159.81 -347.56,181.55l-0.02 0.18 -0.37 2.56 -0.09 0.66 -0.33 2.16 -0.18 1.12 -0.29 1.75 -0.24 1.63 -0.22 1.3 -0.35 2.14 -0.16 0.86 -1.63 9.28 -0.11 0.64 -0.48 2.56 -0.22 1.16 -0.4 2.08 -0.31 1.72 -0.31 1.56 -0.44 2.3 -0.22 1.03 -0.55 2.87 -0.11 0.48 -0.68 3.42 0 0.05 -0.69 3.39 -0.13 0.6 -0.6 2.86 -1.08 5.27 -0.37 1.74 -0.51 2.36 -0.24 1.19 -0.64 2.96 -0.13 0.64 -0.77 3.55 0 0.04 -0.8 3.6 -0.11 0.55 -0.68 3.08 -0.24 1.15 -0.58 2.49 -0.37 1.74 -0.42 1.92 -0.53 2.34 -0.31 1.32 -0.64 2.93 -0.17 0.73 -0.8 3.55 -0.04 0.13 -0.82 3.69 -0.11 0.46 -0.73 3.2 -0.24 1.05 -0.62 2.63 -0.37 1.65 -0.46 2.01 -0.51 2.25 -0.33 1.41 -0.66 2.84 -0.18 0.82 -0.79 3.42 -0.07 0.22 -0.84 3.61 -0.08 0.38 -0.75 3.24 -0.23 0.95 -0.61 2.64 -0.36 1.52 -0.48 2.03 -0.49 2.1 -0.33 1.45 -0.61 2.65 -0.22 0.88 -0.75 3.17 -0.07 0.31 -0.79 3.46 -0.07 0.27 -0.75 3.17 -0.18 0.8 -0.61 2.58 -0.31 1.36 -0.46 2.01 -0.45 1.88 -0.33 1.43 -0.55 2.38 -0.22 0.9 -0.66 2.87 -0.09 0.35 -0.73 3.2 -0.04 0.15 -0.68 2.98 -0.16 0.66 -0.55 2.43 -0.26 1.12 -0.42 1.9 -0.38 1.61 -0.31 1.36 -0.46 2.06 -0.2 0.86 -0.55 2.46 -0.09 0.4 -0.61 2.78 -0.03 0.09 -0.57 2.64 -0.11 0.51 -0.46 2.16 -0.22 0.91 -0.36 1.67 -0.28 1.3 -0.24 1.24 -0.36 1.65 -0.17 0.79 -0.4 1.99 -0.09 0.37 -0.46 2.3 -0.33 1.58 -0.31 1.59 -0.24 1.3 -0.07 0.29 -0.31 1.56 -0.31 1.57 -0.2 0.99 -0.11 0.58 -0.28 1.54 -0.31 1.56 -0.13 0.71 -0.16 0.84 -0.28 1.54 -0.31 1.52 -0.07 0.42 -0.22 1.1 -0.26 1.53 -0.29 1.52 -0.02 0.15 -0.27 1.37 -0.26 1.5 -0.27 1.36 -0.02 0.14 -0.26 1.5 -0.27 1.47 -0.2 1.08 -0.06 0.4 -0.27 1.48 -0.26 1.47 -0.16 0.82 -0.11 0.66 -0.26 1.46 -0.27 1.45 -0.08 0.55 -0.16 0.91 -0.26 1.45 -0.25 1.44 -0.04 0.26 -0.22 1.17 -0.24 1.43 -0.25 1.44 -0.24 1.41 -0.24 1.41 -0.22 1.17 -0.02 0.24 -0.25 1.41 -0.48 2.8 -0.24 1.39 -0.25 1.39 -0.11 0.64 -0.13 0.75 -0.24 1.36 -0.22 1.37 -0.07 0.4 -0.17 0.97 -0.25 1.37 -0.24 1.36 -0.02 0.13 -0.2 1.22 -0.24 1.34 -0.22 1.24 -0.02 0.11 -0.22 1.34 -0.25 1.33 -0.17 0.99 -0.05 0.35 -0.24 1.32 -0.24 1.33 -0.13 0.72 -0.09 0.58 -0.25 1.32 -0.24 1.3 -0.09 0.51 -0.13 0.79 -0.24 1.3 -0.24 1.3 -0.05 0.25 -0.2 1.05 -0.22 1.28 -0.24 1.28 0 0.02 -0.24 1.26 -0.24 1.28zm1002.44 -3807.57c-8.38,72.82 -46.66,120.8 -74.29,162.93 3.44,3.16 4.72,4.86 14.91,11.51l58.78 34.22c22.78,17.2 39.36,39.71 56.05,64.76 43.59,65.37 48.66,6.24 152.16,81.91 142.76,104.34 123.47,262.97 119.43,389.8 40.11,43.99 92.87,86.76 136.97,126.36l14.18 -14.62c1.14,-1.32 3.02,-3.55 4.25,-5 7.25,-8.56 7.45,-10.04 15.68,-19.5 38.63,-44.56 80.1,-70.79 137.51,-88.56 -18.69,-91.42 -85.41,-334.83 -128.69,-387.82 -50.27,-61.56 -77.55,-59.2 -146.63,-97.54 -87,-48.31 -112.77,-12.33 -193.21,12.37 24.63,-65.35 71.42,-52.41 113.68,-79.71 -71.79,-209.28 -102.72,-239.4 -307.2,-290 -88.22,-21.83 -134.91,-59.58 -237.26,-31.51 -39.32,10.78 -70.71,28.29 -99.07,51.46 -31.24,25.56 -47.51,57.13 -80.76,68.9 -44.76,-53.13 -53.98,-85.79 -121.82,-123.38 -89.89,-49.81 -115.95,-3.18 -180.73,30.18 16.86,-69.38 81.47,-99.85 151.63,-90.42 75.14,10.12 109.29,63.7 150.92,95.43 69.94,-44.16 38.38,-83.81 210.61,-107.36 -53.34,-70.07 -156.37,-152.59 -241.55,-177.69 -150.94,-44.47 -384.7,-49.49 -423.46,174.12 -6.55,37.75 -2.16,87.43 -8.05,114.26 -1.3,6.04 -58.43,107.84 -89.36,228.8l0 0.02 0.17 0.81 0.44 2.32 0.62 3.13 0.6 3.13 0.57 3 0.02 0.15 0.58 3.14 0.55 3.15 0.17 1.06 0.36 2.09 0.86 5.32 0.15 1.01 0.2 1.15 0.29 2 0.48 3.16 0.44 3.17 0.2 1.28 0.24 1.9 0.4 3.15 0.4 3.17 0.37 3.02 0.02 0.16 0.36 3.17 0.33 3.18 0.17 1.5 0.16 1.67 0.28 3.16 0.29 3.17 0.13 1.63 0.14 1.55 0.22 3.17 0.22 3.18 0.19 3.15 0.18 3.17 0.16 3.16 0.08 1.83 0.05 1.34 0.09 3.16 0.08 3.15 0.05 1.94 0.02 1.21 0.02 3.15 0.02 3.16 0 2.03 0 1.1 -0.11 6.28 -0.04 2.14 -0.04 0.97 -0.11 3.13 -0.14 3.13 -0.11 2.23 -0.04 0.88 -0.2 3.11 -0.33 4.87 -0.04 0.55 -0.07 0.75 -0.57 6.18 -0.25 2.42 -0.06 0.66 -0.75 6.11 -0.31 2.51 -0.09 0.56 -0.44 3.04 -0.46 3.02 -0.42 2.6 -0.07 0.42 -1.54 8.38 -0.07 0.33 -0.06 0.31 -1.26 5.95 -0.62 2.78 -0.06 0.2 -0.71 2.95 -1.48 5.78 -0.02 0.09 -2.51 8.73 -0.11 0.35 -0.11 0.33 -0.11 0.35 -0.2 0.69 -0.11 0.35 -0.46 1.39 -0.11 0.35 -0.12 0.33 -0.11 0.36 -0.11 0.35 -0.13 0.35 -0.04 0.18 -0.07 0.17 -0.11 0.34 -0.13 0.35 -0.11 0.35 -0.13 0.35 -0.11 0.36 -0.14 0.35 -0.11 0.35 -0.13 0.35 -0.11 0.34 -0.13 0.35 -0.13 0.35 -0.11 0.35 -0.14 0.36 -0.13 0.35 -0.11 0.35 -0.02 0 -0.13 0.36 -0.11 0.35 -0.14 0.35 -0.13 0.35 -0.13 0.36 -0.13 0.35 -0.13 0.35 -0.14 0.38 -0.13 0.35 -0.15 0.35 -0.14 0.35 -0.13 0.36 -0.13 0.35 -0.13 0.35 -0.16 0.36 -0.04 0.17 -0.09 0.18 -0.13 0.37 -0.16 0.36 -0.13 0.35 -0.15 0.35 -0.13 0.35 -0.16 0.36 -0.13 0.37 -0.16 0.36 -0.13 0.35 -0.15 0.35 -0.13 0.38 -0.16 0.35 -0.15 0.35 -0.16 0.35 -0.13 0.36 0 0.02 -0.15 0.35 -0.16 0.35c1.08,4.19 2.18,8.32 3.44,12.42 34.9,113.88 189.22,277.61 377.3,96.84 109.69,-105.46 222.89,-263.38 351.76,-304.65 55.92,-17.93 153.13,-7.56 219.56,-95.45 21.74,-28.75 17.75,-46.23 53.12,-64.09zm-816.11 367.35c10.45,-301.27 177.27,-242.34 219.4,-281.21 -22.22,-124.42 -159.12,-27.54 -193.23,12.02 -43.55,50.51 -79.24,200.9 -26.17,269.19zm486.85 1752.73c23.13,-28.24 61.17,-269.77 203.42,-185.41 27.08,16.05 24.72,13.21 32.81,41.19 -43.12,2.2 -126.31,-19.67 -173.08,79.07 -14.93,31.46 -23.44,68.02 -24.78,108.83 -2.41,71.48 3.7,102.41 15.19,122.92 -6.7,55.83 19.07,167.33 44.8,206.66 67.74,60.88 400.36,-168.8 380.32,-274 -3.99,-21.05 -39.27,-51.53 -51.04,-62.51l-22.76 -23.76c67.25,0.9 138.47,43.89 119.81,131.05 -7.36,34.49 -122.65,127.47 -84.05,161.84 36.1,15.63 93.4,-4.37 131.86,18.72 -10.59,20.11 14.9,4.03 -17.78,17.26 -26.43,10.7 -68.32,-6.74 -109.07,-4.01 -123.23,8.27 -151.05,143.51 -314.92,139.13 17.59,90.86 94.13,220.68 135.93,267.73 78.45,88.31 166.47,14.69 299.93,46.79 285.48,68.7 144.19,312.27 82.19,347.82 -29.74,17.06 -120.89,45.17 -141.53,-19.67 76.36,3.81 133.31,-3.31 148.7,-85.73 15.46,-82.68 -18.76,-148.89 -78.45,-160.97 -171.58,-34.75 -345.92,135.62 -530.2,-421.73 -19.54,-59.06 -39.62,-135.22 -49.9,-202.84 -17.2,-113.36 4.92,-156.33 2.6,-248.38z"/>
    <path class="fil1" d="M1726.82 4794.57c-14.01,61.12 -34.5,109.54 -64.39,146.78 -42.7,53.14 -92,42.55 -116.89,79.95 165.16,115.71 301.1,-302.05 268.41,-509.15 76.77,8.93 166.02,22.71 241.55,4.72 113.03,-26.92 94.2,-74.81 160.08,-117.45 29.8,114.65 49.53,-20.27 44.79,295.54 -1.67,111.16 4.54,248.42 -1.19,354.18 -166.01,-116.37 -327.15,-96.33 -416.19,88.55 -38.51,79.91 -55.7,185.25 -90.71,258.15 -49.03,102.17 -145.2,38.01 -234.76,20.77 31.32,109.05 207.89,174.86 282,79.94 16.3,51.18 100.58,215.18 135.86,137.41 -14.82,-39.22 -52.72,-1.78 -67.86,-179.03 -25.7,-301.01 142.46,-483.44 313.35,-327.49 121.08,110.51 152.4,167.81 54.93,336.57 -62.17,107.64 -142.61,41.03 -184.4,-69.72 -17.7,-46.92 -10.51,-85.66 -20.01,-111.96 -51.22,16.6 -48.24,128.46 -27.97,177.93 9.14,22.29 29.45,57.37 40.6,74.15 21.61,32.46 40.44,35.3 40.35,79.09 -0.23,94.5 -76.59,313.8 -117.86,356.46 -80.66,83.39 -223.62,75.32 -335.25,36.27 -75.7,-26.48 -81.11,-37.84 -105.68,-126.56 -32.3,-116.64 1.58,-135.07 -7.19,-227.45 -89,12.08 -50.7,217.73 -42.28,300.98 -82.89,61.87 -280.07,68.29 -351.95,-75.12 14.02,-61.05 38.91,-90.86 20.51,-174.93 -12.82,-58.58 -49.49,-95.73 -96.88,-112.12 21.89,80.04 74.76,76.38 58.04,161.71 -11.15,56.9 -45.34,110.02 -100.1,108.65 -175.46,-4.41 -217.92,-251.26 -317.39,-301.18 -195.62,-98.18 -153.89,-104.36 -191.66,-221.96 -14.38,-44.76 -74.75,-82.53 -19.81,-145.22 88.82,-101.33 210.38,-7.14 233.32,78.56 37.32,139.35 -61.23,267.52 179.06,167.35 153.45,-63.96 270.56,-90.84 378.05,127.49 22.93,46.5 34.93,119.83 73.72,148.32 -16.36,-295.89 -139.18,-245.71 -151.12,-449.31 -6.5,-110.93 24.33,-164.86 68.7,-222.47l128.21 -171.65c-30.02,-55.36 -117.32,-40.43 -195.68,-162.45 -53.76,-83.74 -108.2,-421.81 289.48,-287.52 91.85,31.03 175.91,54 271.88,79.49 8.46,81.98 -1.78,226.81 -25.67,293.73zm-1239.03 -1207.56l-31.58 198.95c-68.6,-31.07 -177.76,-145.96 -210.5,-205.76 -89.9,-164.06 47.79,-199.3 152.07,-226.73 15.72,-13.95 46.18,-29.34 65.44,-45.46 45.52,-38.14 136.3,-171.82 106.58,-233.6 -17.66,16.05 -43.29,71.74 -58.42,93.77 -17.35,25.31 -51.19,65.37 -71.12,79.79 -7.75,11.38 -2.86,5.6 -13.16,16.12 -51.96,53.05 -119.43,21.76 -208.56,109.47 -124.21,122.19 -34.6,199.12 -20.37,250.96 -38.96,60.59 -44.25,43.1 -84.48,140.56 -33.16,-46.66 -69.85,-99.51 -157.8,-109.67l0 -249c34.11,-51.22 64.95,-333.13 122.49,-396.65 120.46,-133.02 251.58,80.15 343.09,59.93 0.31,-1.97 138.01,-267.17 162.69,-293.93 57.58,-62.42 215.01,-120.83 182.55,170.74 -28.26,254 -134.42,344.11 -212.7,488.38 -15.77,29.06 -64.83,150.35 -66.22,152.13zm758.19 -1596.98l-83.96 168.15c-63.97,99.3 -201.19,230.93 -303.31,100.96l-94.67 -163.54c-43.09,-33.4 -83.98,-98.97 -103.49,-154.63 -23.32,-66.49 -43.38,-135.42 -48.41,-214.07 -5.39,-84.29 9.7,-160.91 40.29,-222.07 18.51,-37.04 87.02,-130.81 104.47,-145.14 25.22,-53.32 154.01,-171.94 217.7,-223.49 -1.65,-88.97 -113.56,-347.2 184.99,-417.82 1.92,71.79 -0.1,191.58 70.3,186.84 31.04,-121.75 -102.1,-220.13 114,-333.51 330.18,-173.23 311.87,313.45 680.83,385.46 100.62,19.64 113.48,-5.43 183.54,-42.89 -3.65,170.59 101.69,235.08 105.12,473.34 -251.4,-272.23 -277.75,-95.09 -490.55,-284.96 -11.12,-9.92 -19.59,-19.99 -29.22,-30.55 -15.66,-17.14 -15.57,-18.79 -32.77,-31.64 20.46,84.62 89.1,127.39 129.94,180.24 -45.48,39.07 -112.8,44.65 -103.12,129.19 51.57,-0.53 89.65,-65.36 166.68,-79.51 162.73,-29.88 387.01,172 338.77,402.65 -14.95,71.59 -53.81,149.05 -46.96,222.12 6.34,67.49 32.77,156.45 44.33,229.24 15.64,98.51 49.1,430.74 -2.35,500.9 3.41,67.95 -22.8,144.48 -64.53,185.51 -60.11,59.12 -126.63,28.6 -179.45,62.51 34.97,65.71 122.47,42.82 183.53,28.51 -22.35,92.61 -152.13,92.01 -160.36,353.04 30.39,-32.25 28.94,-79.5 56.07,-131.21 22.09,-42.09 50.05,-72.82 100.25,-87.2 0.09,281.47 121.84,444.08 101.6,709.48 -221.34,23.35 -380.22,-9.57 -477.6,-175.18 -111.35,-189.33 -52.31,-405.91 10.97,-602.74 94.65,-294.41 68.21,-318.16 -24.53,-583.05 -78.76,-224.88 -145.34,-350 -19.92,-568.22 42.19,-46.94 70.63,-81.71 151.46,-59.2 39.4,10.98 110.59,59.56 132.66,78.41 -34.19,-51.16 -63.24,-106.41 -106.12,-146.05 -79.39,-73.38 -119.34,-3.05 -170.35,24.6 -13.32,-155.22 -85.65,-280.26 -194.27,-332.4 -38.08,-18.28 -99.59,-30.63 -135.92,0.46 28.38,0.82 53.16,-4.34 71.19,11.22 103.68,-6.08 178.78,116.07 188.68,241.92 12.69,161.71 -55.19,223.73 -71.66,378.6 -36.38,-55.65 -114.33,-128.3 -200.65,-137.85 -126.41,-13.96 -172.29,70.27 -233.2,113.57zm-1032.59 -65.13c35.45,-200.46 124.32,-235.35 120.04,-422.76 -1.19,-51.9 15.47,-113.2 32.15,-150.9 22.61,-51.09 121.48,-160.95 162.79,-181.57 97.28,-48.59 180.24,34.09 220.44,82.7 -65.58,71.33 -151.51,187.44 -195.3,322.71 -30.83,95.23 -82.55,7.85 -184.95,202.49 -16.69,31.75 -24.96,74.84 -45.23,98.67 1.46,62.16 -25.52,148.5 -22.14,246 1.13,32.78 12.95,109.38 11.04,130.81 -2.98,33.58 -26.7,57.39 -39.1,97.08 -51.79,165.74 73.44,317.06 157.45,355.6 -28.46,-56.2 -177.26,-189.49 -125.36,-327.33 19.76,-52.43 39.81,-50.89 69.88,-87.25 -5.69,-117.78 -28.42,-219.27 -3,-339.94 18.18,-86.21 93.56,-180.98 153.58,-208.58 2,170.7 61.32,222.36 76.79,285.61 -41.9,43.17 -70.73,62.91 -91.46,134.39 -17.94,61.76 -2.73,136.08 32.92,172.99 -17.8,-56.62 -28.96,-112.62 -0.5,-171.62 17.85,-37.05 70.55,-99.29 121.95,-90.82 68.21,11.24 138.96,181.41 186.1,250.96 69.77,102.94 184.23,82.44 271.19,3.13 91.86,-83.74 98.79,-159.9 164.87,-273.3 85.48,-146.69 250.38,-160.86 380.65,21.44 35.06,49.05 40.53,92.38 60.3,162.71 46.1,163.98 31.69,146.54 97.04,344.67 18.77,56.91 34.49,125.85 28,194.42 -5.61,59.6 -29.92,129.76 -62.59,160.19 -3.06,34.24 -29.99,97.69 -41.03,145.8 -11.95,52.06 -20.05,107.42 -22.64,163.43 -6.29,316.53 81.94,300.1 46.49,380.49 -42.73,96.9 -116.06,185.12 -205.08,225.84 -89.5,40.97 -148.26,10.41 -226.83,-18.12 -327,-118.69 -650.71,-67.23 -592.14,457.95 -40.8,-12.19 -59.44,-25.64 -106.47,-33.69 -45.51,-7.76 -56.82,-16.23 -74.12,-58.76 -62.6,-153.92 -38.64,-675.22 53.73,-761.07 3.21,-34.29 21.26,-59.29 43.11,-96.69 119.17,-203.9 257.55,-335.58 195.73,-523.41 -13.51,-41.1 -26.85,-70.8 -49.96,-100.3l-66.72 -73.4c-160.66,-56.99 -200.52,76.27 -272.12,242.05 -18.83,43.57 -30.87,102.09 -67.17,115.89 -42.57,-61.69 -32.58,-88.68 -116.62,-113.15 -78.31,-22.78 -125.91,-4.46 -190.9,19.62 4.82,-31.82 32.52,-139.15 44.55,-171.39 20.4,-54.65 69.73,-69.93 79.63,-128.08 -16.11,-54.15 -58.73,-39.33 -81.06,-126.89 -20.06,-78.69 -12.23,-203.57 43.77,-267.64 29.04,-33.25 19.2,-20.27 14.25,-83.63 -4.11,-52.94 -5.32,-173.48 14.05,-207.35zm839.74 2639.09c-10.34,183.66 84.18,292.93 232.35,296.97 -15.99,41.54 -43.52,75.36 -66.74,116.09 -24.82,43.5 -36.49,78.93 -59.49,125.72 -177.72,17.06 -165.31,-144.6 -231,-268.84 -64.24,-121.53 -171.48,-174.27 -333.14,-174.27 -204.5,0 -317.4,-163.94 -408.79,-360.92 -42.14,-90.82 -76.18,-212.28 -71.68,-336.39 4.41,-121.58 55.24,-247.54 109.57,-302.86 26.22,17.08 27.8,26.43 50.7,54.9 17.4,21.58 32.74,32.08 56.13,55.3l114.18 98.69c13.53,17.9 46.85,333.79 61.99,394.75 46.41,186.82 151.26,75.19 280.19,137.45 96.14,46.42 174.88,121.54 265.73,163.41zm-1097.24 -573.99l0 -251.56c51.74,9.81 72.49,26.44 97.67,70.36 34.12,59.53 21.44,76.2 14.36,145.06 -27.18,264.45 175.21,621.37 308.85,719.14 170.59,124.79 377.02,-42.38 479.44,152.68 85.24,162.3 69.51,407.83 289.94,342.13 4.69,95.71 -3.37,96.9 21.29,181.7 -89.28,-14.68 -97.48,-25.29 -193.38,3.24 -64.67,19.21 -112.4,50.03 -166.7,67.94 -26.92,-415.25 -411.15,-429.89 -407.54,-143.14 -39.84,-14.69 -92.35,-59.67 -113.51,-83.72 -76.09,-86.5 -111.34,-174.85 -14.83,-264.03 60.37,-55.81 109.7,4.89 139.16,-18.88 -25.7,-31.53 -180.82,-90.42 -241.09,55.61 -127.92,-71.95 -81.63,-338.49 -85.1,-515.85 -2.2,-113.11 -103.51,-425.45 -128.56,-460.68zm1351.01 -2642.75c-120.39,61.45 -211.3,100.34 -306.64,186.44 -69.58,62.82 -170.38,224.44 -85.14,379.26 12.06,-150.37 38.95,-268.46 151.67,-365.76 61.74,-53.29 90.83,-48.29 172,-67.8 79.83,-19.19 100.39,-45.56 142.64,-91.06 70.4,-152.34 -73.67,-408.17 121.04,-415.36 57.93,-2.13 88.21,33.81 139.43,28.01 32.02,-126.89 -192.59,-150.09 -310.55,-12.33 -61.15,71.39 -2.15,123.12 28.11,186.53 45.9,96.13 15.34,138.45 -52.56,172.07zm671.86 649.62c53.92,55.6 116.09,122.06 145.63,221.15 63.75,213.89 -39.52,250.07 -39.19,307.88 59.78,25.29 114.48,-85.52 106.09,-169.07 -26.34,-240.24 -194.13,-417.4 -212.53,-359.96zm329.79 1865.31c-1.32,46.94 -36.06,177.6 -47.31,233.41 -19.33,95.82 -19.92,159.54 -68.66,218.41 -113.51,137.05 -189.99,134.76 -389.06,106.12 -141.33,-20.33 -285.22,-52.87 -421.6,-88.61 -81.78,-21.43 -136.74,-39.58 -203.1,15.61 -51.83,43.08 -68.49,97.74 -96.39,148.49l-6.56 10.92c-0.84,1.32 -2.89,4.03 -3.58,5.09 -0.7,1.06 -2.37,3.42 -3.67,4.98 -49.79,-30.89 -108.07,-84.79 -164.71,-123.36 -28.76,-19.6 -62.1,-32.14 -75,-70.71 -55.05,-164.72 -12.97,-441.59 279.16,-440.88 267.73,0.68 313.78,261.45 398.76,299.79 -9.56,-55.14 -33.69,-89.56 -56.57,-128.41 -25.65,-43.61 -57.49,-72.71 -74.74,-110.24 175.73,20.02 326.8,-55.25 429.69,-211.67l25.22 -45.64c9.06,-14.26 4.57,-8.22 11.56,-15.67 136.83,134.14 272.25,186.39 466.56,192.37zm-1060.02 -3518.05c8.38,72.82 46.66,120.8 74.29,162.94 -3.44,3.15 -4.72,4.85 -14.92,11.51l-58.77 34.21c-22.78,17.2 -39.36,39.71 -56.06,64.76 -43.58,65.38 -48.64,6.24 -152.15,81.91 -142.76,104.34 -123.47,262.98 -119.43,389.8 -40.1,43.99 -92.87,86.76 -136.98,126.36l-14.17 -14.62c-1.15,-1.32 -3.02,-3.55 -4.25,-5 -7.26,-8.56 -7.44,-10.04 -15.67,-19.49 -38.64,-44.56 -80.11,-70.8 -137.52,-88.57 18.7,-91.42 85.41,-334.83 128.7,-387.82 50.27,-61.56 77.53,-59.2 146.61,-97.54 87.02,-48.31 112.79,-12.32 193.22,12.37 -24.63,-65.35 -71.42,-52.41 -113.69,-79.71 71.79,-209.28 102.73,-239.4 307.2,-290 88.22,-21.83 134.92,-59.58 237.28,-31.51 39.3,10.78 70.71,28.29 99.06,51.46 31.25,25.56 47.52,57.13 80.76,68.9 44.77,-53.13 53.98,-85.79 121.82,-123.38 89.89,-49.81 115.96,-3.17 180.73,30.19 -16.87,-69.39 -81.46,-99.86 -151.62,-90.43 -75.14,10.12 -109.29,63.7 -150.93,95.43 -69.93,-44.16 -38.39,-83.81 -210.62,-107.35 53.35,-70.08 156.38,-152.6 241.57,-177.69 150.93,-44.48 384.69,-49.5 423.45,174.11 6.54,37.75 2.17,87.43 8.04,114.26 2.15,9.88 153.16,275.14 95.79,462.25 -34.91,113.88 -189.23,277.61 -377.3,96.84 -109.7,-105.46 -222.88,-263.37 -351.76,-304.65 -55.93,-17.93 -153.14,-7.56 -219.57,-95.45 -21.73,-28.75 -17.73,-46.23 -53.11,-64.09zm816.12 367.35c-10.47,-301.27 -177.28,-242.34 -219.42,-281.21 22.24,-124.42 159.14,-27.54 193.24,12.02 43.54,50.51 79.25,200.9 26.18,269.19zm-486.87 1752.73c-23.12,-28.24 -61.15,-269.76 -203.41,-185.41 -27.09,16.05 -24.72,13.21 -32.81,41.19 43.12,2.21 126.32,-19.67 173.09,79.07 14.92,31.46 23.42,68.02 24.77,108.83 2.39,71.48 -3.7,102.41 -15.19,122.92 6.71,55.83 -19.07,167.33 -44.81,206.66 -67.73,60.88 -400.35,-168.8 -380.32,-274 4.01,-21.05 39.27,-51.52 51.06,-62.5l22.75 -23.77c-67.25,0.9 -138.48,43.9 -119.82,131.05 7.38,34.49 122.66,127.47 84.06,161.84 -36.1,15.63 -93.4,-4.37 -131.87,18.72 10.59,20.11 -14.89,4.03 17.79,17.26 26.43,10.7 68.33,-6.74 109.07,-4.01 123.23,8.27 151.06,143.52 314.93,139.13 -17.61,90.86 -94.14,220.68 -135.94,267.73 -78.46,88.31 -166.48,14.69 -299.93,46.79 -285.48,68.7 -144.19,312.28 -82.2,347.82 29.76,17.06 120.91,45.18 141.53,-19.67 -76.34,3.81 -133.31,-3.31 -148.69,-85.72 -15.45,-82.69 18.76,-148.9 78.44,-160.98 171.59,-34.75 345.93,135.62 530.21,-421.73 19.53,-59.06 39.62,-135.22 49.9,-202.84 17.2,-113.35 -4.92,-156.33 -2.61,-248.38z"/>
   </g>
   <path class="fil2" d="M2035.41 4037.38c9.35,55.32 3.25,1048.77 3.25,1194.73 0,440.58 17.17,644.85 -354.6,654.37l1.37 185.85 1092.89 2.55 -0.02 -164.82c-72.5,-54.29 -235.28,-50.67 -292.32,-243.88 -34.16,-115.7 -20,-519.21 -20,-677.43l-0.17 -878.26c-0.93,-97.44 -0.63,-72.04 64.01,-74.19 322.9,-10.76 634.37,-157.09 814.92,-495.31 155.84,-291.93 191.34,-642.34 193.12,-1116.28 0.67,-179.8 -4.74,-492.19 41.93,-634.91 22.86,-69.89 73.16,-144.96 102.77,-194.92 34.09,-57.55 95.74,-152.77 3.15,-196.94 -121.48,-57.95 -270.68,41.19 -345.01,128.85 -83.42,98.37 -145.38,225.45 -201.4,396.08 -204.71,623.5 14.09,1344.01 -305.22,1649.5 -75.11,71.86 -258.83,152.76 -367.44,125.37 -7.23,-210.39 -0.66,-450.9 -0.66,-664.62l-0.01 -999.55c-0.13,-133.95 8.29,-178.13 55.18,-248.39 70.65,-105.85 180.71,-161.1 295.3,-212.77l-0.17 -159.79 -1140.31 -0.75 -2.3 228.16c407.56,26.79 364.99,231.05 364.99,741.22 0,230.42 7.63,1174.15 -1.36,1319.3 -762.68,10.52 -502.62,-889.5 -691.29,-1708.71 -15.19,-65.92 -34.21,-135.9 -55.66,-190.79 -51.44,-131.65 -201.83,-334.6 -298.29,-383.34 -67.29,-33.99 -286.61,-82.84 -217.46,107.52 47.4,130.45 113.27,133.35 150.81,319.42 28.28,140.2 32.23,337.97 46.78,492.8 29.55,314.42 75.74,620.61 143.54,894.12 74.41,300.1 148.41,502.51 311.02,632.28 182.98,146.02 388.62,141.34 608.66,173.53z"/>
  </g>
 </g>
</svg>
